<?xml version="1.0" encoding="UTF-8" standalone="no"?>
<!DOCTYPE svg PUBLIC "-//W3C//DTD SVG 1.1//EN" "http://www.w3.org/Graphics/SVG/1.1/DTD/svg11.dtd">
<svg width="100%" height="100%" viewBox="0 0 147 43" version="1.1" xmlns="http://www.w3.org/2000/svg" xmlns:xlink="http://www.w3.org/1999/xlink" xml:space="preserve" xmlns:serif="http://www.serif.com/" style="fill-rule:evenodd;clip-rule:evenodd;stroke-linejoin:round;stroke-miterlimit:2;">
    <g>
        <path d="M55.892,20.833L55.892,31.286C55.892,35.586 54.113,37.588 50.332,37.588C45.958,37.588 45.031,34.178 45.031,31.286L45.031,20.833L43.734,20.833L43.734,31.286C43.734,36.216 45.958,38.737 50.332,38.737C54.854,38.737 57.153,36.253 57.153,31.286L57.153,20.833L55.892,20.833Z" style="fill:white;fill-rule:nonzero;"/>
        <path d="M65.456,25.355C63.491,25.355 61.786,26.393 61.082,28.024L61.082,25.652L59.933,25.652L59.933,38.292L61.082,38.292L61.082,31.472C61.082,28.395 62.787,26.393 65.456,26.393C68.866,26.393 68.866,29.359 68.866,30.359L68.866,38.329L70.016,38.329L70.016,30.545C69.978,29.099 69.978,25.355 65.456,25.355Z" style="fill:white;fill-rule:nonzero;"/>
        <path d="M72.796,25.652L72.796,38.292L73.908,38.292L73.908,25.652L72.796,25.652Z" style="fill:white;fill-rule:nonzero;"/>
        <path d="M72.796,21.797L72.796,23.502L73.908,23.502L73.908,21.797L72.796,21.797Z" style="fill:white;fill-rule:nonzero;"/>
        <path d="M85.177,25.652C85.177,25.652 81.173,36.513 81.025,36.884C80.877,36.513 76.577,25.652 76.577,25.652L75.279,25.652L80.358,38.292L81.655,38.292L86.437,25.652L85.177,25.652Z" style="fill:white;fill-rule:nonzero;"/>
        <path d="M92.591,25.355C91.108,25.355 89.847,25.874 88.884,26.838C87.66,28.061 86.993,30.026 86.993,32.176C86.956,34.178 87.586,35.883 88.735,37.069C89.699,38.07 91.071,38.589 92.591,38.589C95.63,38.589 97.558,36.958 98.077,33.992L98.114,33.881L96.965,33.881L96.965,33.955C96.52,36.216 94.926,37.551 92.628,37.551C91.441,37.551 90.441,37.143 89.662,36.365C88.698,35.401 88.179,33.881 88.179,32.213L88.179,32.176L98.225,32.176L98.225,31.583C98.225,29.655 97.632,27.987 96.594,26.875C95.556,25.911 94.222,25.355 92.591,25.355ZM92.591,26.393C95.408,26.393 96.928,28.803 97.039,31.212L88.179,31.212C88.402,28.803 89.959,26.393 92.591,26.393Z" style="fill:white;fill-rule:nonzero;"/>
        <path d="M101.339,28.172L101.339,25.652L100.19,25.652L100.19,38.292L101.339,38.292L101.339,31.397C101.45,29.507 101.858,28.803 102.71,27.876C104.045,26.578 105.602,26.653 106.047,26.69L106.158,26.69L106.158,25.578L106.047,25.578C104.008,25.503 102.006,26.616 101.339,28.172Z" style="fill:white;fill-rule:nonzero;"/>
        <path d="M112.163,31.286L111.792,31.212C109.902,30.804 108.122,30.434 108.122,28.654C108.122,26.986 109.902,26.356 111.607,26.356C112.941,26.356 115.166,26.764 115.166,29.433L115.166,29.544L116.315,29.544L116.315,29.433C116.315,26.801 114.647,25.355 111.607,25.355C110.532,25.355 107.01,25.578 107.01,28.654C107.01,31.397 109.531,31.916 111.384,32.287L111.718,32.361C113.683,32.769 115.573,33.14 115.573,35.03C115.573,37.328 112.904,37.551 111.755,37.551C109.457,37.551 107.9,36.179 107.752,34.029L107.752,33.918L106.64,33.918L106.64,34.029C106.714,36.809 108.678,38.552 111.792,38.552C112.941,38.552 116.759,38.292 116.759,34.993C116.648,32.361 114.609,31.768 112.163,31.286Z" style="fill:white;fill-rule:nonzero;"/>
        <path d="M118.984,25.652L118.984,38.292L120.133,38.292L120.133,25.652L118.984,25.652Z" style="fill:white;fill-rule:nonzero;"/>
        <path d="M137.778,25.652C137.778,25.652 133.774,36.328 133.589,36.809C133.403,36.328 129.029,25.652 129.029,25.652L124.989,25.652L124.989,21.797L123.84,21.797L123.84,25.652L121.541,25.652L121.541,26.69L123.84,26.69L123.84,35.475C123.84,36.439 124.062,37.143 124.581,37.625C125.322,38.366 126.583,38.366 127.584,38.329L127.695,38.329L127.695,37.328L127.584,37.328C126.546,37.366 125.878,37.291 125.471,36.884C125.137,36.587 124.989,36.068 124.989,35.253L124.989,26.69L128.14,26.69C128.177,26.838 132.922,38.07 132.959,38.144C132.403,39.738 132.069,40.628 131.698,40.998C131.105,41.591 130.512,41.777 129.178,41.777L129.066,41.777L129.066,42.778L129.178,42.778C130.549,42.778 131.439,42.741 132.143,42.184C132.662,41.777 133.07,40.887 133.626,39.59L139.001,25.689L137.778,25.689L137.778,25.652Z" style="fill:white;fill-rule:nonzero;"/>
        <path d="M118.984,21.797L118.984,23.502L120.133,23.502L120.133,21.797L118.984,21.797Z" style="fill:white;fill-rule:nonzero;"/>
    </g>
    <g>
        <path d="M72.462,18.127C67.421,18.016 63.195,14.16 63.306,8.785C63.454,4.559 66.828,-0.222 72.981,-0.037C77.281,0.037 82.063,3.262 81.952,9.193C81.803,15.161 76.799,18.275 72.462,18.127ZM72.647,1.112C68.792,1.112 66.123,3.929 66.123,8.711C66.123,14.42 69.497,16.978 72.684,16.978C76.54,16.978 79.097,14.012 79.097,9.341C79.134,4.3 76.54,1.112 72.647,1.112Z" style="fill:white;fill-rule:nonzero;"/>
        <path d="M146.526,0.482L146.526,0.222L141.484,0.222L141.484,0.482C142.485,0.556 142.745,0.741 142.745,2.15L142.745,8.303L133.7,8.303L133.7,2.15C133.7,0.741 133.959,0.519 134.96,0.482L134.96,0.222L129.919,0.222L129.919,0.482C130.92,0.556 131.179,0.741 131.179,2.15L131.179,15.94C131.179,17.348 130.92,17.571 129.919,17.608L129.919,17.867L134.96,17.867L134.96,17.608C133.959,17.534 133.7,17.348 133.7,15.94L133.7,9.378L142.745,9.378L142.745,15.977C142.745,17.385 142.485,17.608 141.484,17.645L141.484,17.904L146.526,17.904L146.526,17.645C145.525,17.571 145.266,17.385 145.266,15.977L145.266,2.187C145.266,0.741 145.525,0.556 146.526,0.482Z" style="fill:white;fill-rule:nonzero;"/>
        <path d="M83.286,0.222L83.286,0.482C84.25,0.519 84.547,0.63 84.547,1.668L84.547,15.977C84.547,17.385 84.287,17.608 83.286,17.645L83.286,17.904L87.104,17.904L87.104,17.645C86.103,17.571 85.844,17.385 85.844,15.977L85.844,3.114C85.844,3.336 95.667,15.309 97.817,17.904L98.225,17.904L98.225,1.668C98.225,0.63 98.484,0.556 99.485,0.482L99.485,0.222L95.741,0.222L95.741,0.482C96.705,0.519 97.002,0.63 97.002,1.668L97.002,12.9L86.622,0.222L83.286,0.222Z" style="fill:white;fill-rule:nonzero;"/>
        <path d="M108.048,0.222L107.715,0.222C106.825,2.335 102.673,12.122 101.265,15.495C101.005,16.088 100.597,17.015 100.301,17.348C100.078,17.608 99.856,17.608 99.634,17.645L99.634,17.904L103.007,17.904L103.007,17.645C102.747,17.645 102.154,17.645 102.117,17.126C102.117,16.978 102.154,16.792 102.228,16.607C102.34,16.31 103.007,14.568 103.859,12.641L110.569,12.641C111.236,14.272 111.829,15.68 112.126,16.31C112.2,16.496 112.385,16.941 112.385,17.126C112.385,17.608 111.941,17.645 111.459,17.645L111.459,17.904L116.166,17.904L116.166,17.645C115.573,17.608 115.388,17.459 114.98,16.496L108.048,0.222ZM104.267,11.528C105.416,8.711 107.159,4.263 107.159,4.263C107.159,4.263 108.753,8.266 110.087,11.528L104.267,11.528Z" style="fill:white;fill-rule:nonzero;"/>
        <path d="M42.733,0.222L42.733,0.482C43.289,0.519 43.585,0.556 43.771,0.778C43.808,0.853 43.882,0.964 43.919,1.038C43.956,1.112 43.956,1.223 43.956,1.334L43.956,15.977C43.956,17.385 43.697,17.608 42.696,17.645L42.696,17.904L46.477,17.904L46.477,17.645C45.476,17.571 45.216,17.385 45.216,15.977L45.216,3.707C45.216,3.484 45.179,3.04 45.179,3.04L45.402,3.707L51.518,17.83L51.889,17.83L58.116,3.299L58.302,2.706C58.302,2.706 58.265,3.003 58.265,3.262L58.265,15.977C58.265,17.385 58.005,17.608 57.004,17.645L57.004,17.904L62.046,17.904L62.046,17.645C61.045,17.571 60.785,17.385 60.785,15.977L60.785,1.668C60.785,0.63 61.045,0.556 62.046,0.482L62.046,0.222L58.116,0.222L52.482,13.567L46.773,0.222L42.733,0.222Z" style="fill:white;fill-rule:nonzero;"/>
        <path d="M117.019,16.718C118.205,17.422 119.947,18.164 121.838,18.164L121.949,18.164C124.692,18.127 127.621,16.088 127.621,12.863C127.621,9.378 125.174,8.563 122.728,7.303C120.244,6.079 119.206,5.449 119.206,3.818C119.206,2.706 119.873,1.075 122.097,1.075C122.802,1.075 123.432,1.26 123.951,1.52C125.73,2.521 125.841,3.929 126.064,4.819L126.323,4.819L126.175,0.89C125.026,0.408 124.136,0.185 123.506,0.111C123.135,0.074 122.765,0.037 122.468,0.037C119.984,0.037 117.093,1.52 117.093,4.634C117.093,6.747 118.353,8.081 120.874,9.341C123.358,10.602 125.248,11.121 125.248,13.604C125.248,14.865 124.507,17.089 121.727,17.089C120.615,17.089 119.725,16.718 119.021,16.125C117.353,14.568 117.39,13.308 117.278,12.826L117.019,12.826L117.019,16.718" style="fill:white;fill-rule:nonzero;"/>
    </g>
    <g>
        <path id="SVGID_1_" d="M26.274,8.711L25.978,8.711L25.978,2.484C26.237,3.114 26.274,3.744 26.274,4.263L26.274,8.711ZM14.486,6.228C14.857,6.339 15.265,6.413 15.709,6.45L15.709,6.153C15.339,6.116 14.931,6.042 14.56,5.931C14.078,5.82 13.634,5.709 13.189,5.709C12.966,5.709 12.744,5.746 12.559,5.82L12.559,6.153C12.707,6.079 12.929,6.042 13.189,6.042C13.597,6.005 14.041,6.116 14.486,6.228ZM10.891,6.005C11.15,6.005 11.372,6.042 11.521,6.116L11.521,5.783C11.335,5.709 11.113,5.672 10.891,5.672C10.446,5.672 10.001,5.783 9.519,5.894C9.148,6.005 8.778,6.079 8.37,6.116L8.37,6.413C8.778,6.376 9.185,6.302 9.593,6.191C10.075,6.116 10.483,6.005 10.891,6.005ZM10.891,5.264C11.15,5.264 11.372,5.338 11.521,5.375L11.521,5.041C11.335,4.967 11.113,4.967 10.891,4.93C10.446,4.93 10.001,5.041 9.519,5.153C9.148,5.264 8.778,5.338 8.37,5.375L8.37,5.672C8.815,5.634 9.185,5.56 9.593,5.449C10.075,5.338 10.483,5.227 10.891,5.264ZM10.891,6.784C11.15,6.784 11.372,6.821 11.521,6.895L11.521,6.561C11.335,6.487 11.113,6.487 10.891,6.45C10.446,6.45 10.001,6.561 9.519,6.672C9.148,6.784 8.778,6.858 8.37,6.895L8.37,7.191C8.815,7.154 9.185,7.043 9.593,6.969C10.075,6.858 10.483,6.747 10.891,6.784ZM10.891,4.485C11.15,4.485 11.372,4.559 11.521,4.597L11.521,4.263C11.335,4.189 11.113,4.152 10.891,4.152C10.446,4.152 10.001,4.263 9.519,4.374C9.148,4.485 8.778,4.559 8.37,4.597L8.37,4.893C8.778,4.856 9.185,4.782 9.593,4.671C10.075,4.597 10.483,4.485 10.891,4.485ZM8.889,27.172C5.219,21.129 5.293,15.235 5.293,14.494L5.293,0.222L33.095,0.222L33.095,14.494C33.095,15.235 33.169,21.129 29.499,27.172C26.237,32.658 21.307,35.067 19.194,35.809C17.118,35.067 12.188,32.658 8.889,27.172ZM16.303,26.059L15.561,25.466L15.969,24.577L15.005,24.762L14.597,23.909L14.153,24.762L13.226,24.577L13.634,25.466L12.892,26.059L13.819,26.282L13.819,27.246L14.597,26.653L15.339,27.246L15.339,26.282L16.303,26.059ZM20.269,32.102L21.196,31.657L20.269,31.249L20.603,30.285L19.639,30.656L19.231,29.729L18.823,30.619L17.859,30.248L18.23,31.212L17.303,31.62L18.23,32.065L17.859,33.028L18.823,32.658L19.231,33.584L19.639,32.658L20.603,33.028L20.269,32.102ZM18.23,21.055L17.489,21.685L18.416,21.908L18.416,22.872L19.157,22.278L19.935,22.872L19.972,21.908L20.899,21.685L20.158,21.055L20.566,20.166L19.602,20.351L19.194,19.498L18.786,20.351L17.822,20.166L18.23,21.055ZM21.492,27.134L22.048,26.541L21.233,26.393L20.862,25.652L20.491,26.393L19.676,26.541L20.269,27.134L20.121,27.95L20.862,27.579L21.603,27.95L21.492,27.134ZM24.235,24.206L24.68,23.465L23.828,23.465L23.42,22.723L23.012,23.465L22.159,23.465L22.604,24.206L22.159,24.947L23.012,24.947L23.42,25.689L23.828,24.947L24.68,24.947L24.235,24.206ZM30.759,6.339C30.537,6.45 30.352,6.635 30.241,6.858C30.129,7.043 30.092,7.228 30.092,7.414L30.092,7.562C30.203,7.488 30.315,7.414 30.426,7.34C30.5,7.266 30.574,7.154 30.648,7.08C30.722,6.932 30.759,6.709 30.759,6.524L30.759,6.339ZM27.868,10.602C28.091,10.713 28.35,10.75 28.609,10.713C28.869,10.676 29.054,10.565 29.24,10.379C29.017,10.268 28.795,10.231 28.535,10.268C28.276,10.305 28.053,10.453 27.868,10.602ZM27.868,10.194C27.979,10.009 28.053,9.786 28.053,9.564L28.053,9.49C27.831,9.601 27.646,9.749 27.497,9.934C27.386,10.12 27.312,10.342 27.312,10.565L27.312,10.639C27.572,10.565 27.757,10.416 27.868,10.194ZM28.165,10.12C28.165,10.12 28.165,10.157 28.165,10.12C28.239,10.12 28.276,10.12 28.313,10.083C28.461,9.972 28.535,9.823 28.609,9.638C28.647,9.527 28.684,9.378 28.684,9.267C28.684,9.156 28.647,9.045 28.609,8.934C28.461,9.045 28.35,9.156 28.276,9.304C28.276,9.638 28.239,9.897 28.165,10.12ZM28.869,9.527C28.869,9.564 28.869,9.564 28.869,9.527C28.943,9.527 28.98,9.49 29.017,9.453C29.128,9.304 29.166,9.156 29.203,8.971L29.203,8.859C29.203,8.674 29.128,8.452 29.017,8.266C28.906,8.415 28.795,8.563 28.758,8.711C28.869,9.045 28.906,9.267 28.869,9.527ZM29.388,8.785C29.388,8.822 29.388,8.822 29.388,8.785C29.462,8.785 29.499,8.748 29.536,8.674C29.573,8.563 29.61,8.452 29.61,8.303L29.61,8.155C29.573,7.933 29.462,7.71 29.277,7.525C29.203,7.673 29.166,7.859 29.166,8.007C29.277,8.303 29.351,8.526 29.388,8.785ZM29.759,7.933C29.759,7.97 29.759,7.97 29.759,7.933C29.833,7.896 29.833,7.859 29.87,7.784L29.87,7.71C29.87,7.562 29.833,7.414 29.796,7.266C29.722,7.043 29.536,6.895 29.314,6.747C29.277,6.821 29.277,6.932 29.277,7.006C29.277,7.08 29.277,7.154 29.314,7.228C29.536,7.488 29.684,7.71 29.759,7.933ZM29.907,7.043C29.944,7.006 29.981,6.932 29.981,6.895C29.944,6.709 29.907,6.561 29.796,6.413C29.647,6.228 29.462,6.079 29.203,6.005C29.203,6.191 29.24,6.376 29.314,6.524C29.573,6.635 29.759,6.821 29.907,7.043ZM29.87,5.968C29.796,5.783 29.722,5.634 29.573,5.523C29.388,5.375 29.203,5.301 28.943,5.264C28.98,5.449 29.054,5.597 29.166,5.709C29.425,5.783 29.647,5.931 29.833,6.079L29.87,6.079L29.87,5.968ZM29.573,5.264C29.573,5.19 29.536,5.153 29.536,5.078C29.425,4.93 29.314,4.819 29.166,4.745C28.943,4.634 28.721,4.597 28.461,4.634C28.572,4.782 28.647,4.93 28.795,5.041C29.091,5.041 29.351,5.116 29.573,5.264ZM29.425,10.009C29.647,9.934 29.833,9.749 29.981,9.527C29.722,9.49 29.462,9.49 29.24,9.564C29.054,9.638 28.869,9.823 28.721,10.009C28.832,10.009 28.98,10.046 29.091,10.083C29.203,10.083 29.314,10.083 29.425,10.009ZM30.055,9.156C30.241,9.008 30.389,8.785 30.5,8.526C30.241,8.526 29.981,8.6 29.796,8.748C29.61,8.897 29.462,9.082 29.388,9.304C29.499,9.267 29.647,9.267 29.759,9.267C29.87,9.267 29.981,9.23 30.055,9.156ZM30.722,7.451C30.5,7.525 30.278,7.636 30.092,7.822C29.944,8.007 29.87,8.229 29.833,8.489C29.944,8.452 30.055,8.415 30.203,8.378C30.315,8.303 30.389,8.229 30.463,8.155C30.648,7.97 30.722,7.71 30.722,7.451ZM30.5,5.227C30.315,5.412 30.166,5.597 30.092,5.857C30.055,5.931 30.055,6.042 30.055,6.153C30.055,6.302 30.092,6.45 30.129,6.561C30.203,6.45 30.315,6.376 30.389,6.302C30.463,6.191 30.5,6.079 30.537,5.968C30.574,5.894 30.574,5.783 30.574,5.709C30.611,5.56 30.574,5.412 30.5,5.227ZM29.759,4.93C29.759,5.153 29.833,5.375 29.981,5.597C30.018,5.486 30.092,5.375 30.166,5.264C30.203,5.153 30.241,5.041 30.241,4.93C30.241,4.671 30.166,4.448 30.018,4.226C29.87,4.448 29.759,4.671 29.759,4.93ZM29.166,3.855C29.166,3.929 29.166,4.041 29.203,4.115C29.24,4.337 29.388,4.522 29.573,4.708C29.61,4.597 29.647,4.448 29.684,4.337L29.684,4.263C29.684,4.189 29.684,4.115 29.647,4.003C29.573,3.781 29.462,3.559 29.24,3.373C29.203,3.522 29.166,3.67 29.166,3.855ZM29.054,4.3C28.906,4.189 28.758,4.115 28.609,4.041C28.387,3.966 28.128,4.003 27.905,4.078C28.016,4.226 28.165,4.337 28.313,4.411C28.572,4.374 28.869,4.374 29.091,4.448L29.128,4.448C29.091,4.411 29.091,4.374 29.054,4.3ZM28.35,2.891C28.35,3.077 28.387,3.262 28.461,3.447C28.572,3.67 28.758,3.818 28.98,3.929C28.98,3.781 28.98,3.67 29.017,3.522C28.98,3.41 28.98,3.299 28.906,3.225C28.795,3.003 28.609,2.817 28.387,2.706C28.35,2.78 28.35,2.817 28.35,2.891ZM27.386,2.966C27.46,3.225 27.609,3.447 27.794,3.559C27.979,3.67 28.202,3.744 28.424,3.781C28.35,3.707 28.313,3.633 28.239,3.522C28.202,3.447 28.165,3.336 28.128,3.262C28.091,3.225 28.091,3.225 28.053,3.188C27.905,3.04 27.683,2.966 27.386,2.966ZM24.495,8.785C24.495,8.971 24.643,9.193 24.977,9.193L25.607,9.193C25.533,9.416 25.459,9.749 25.459,10.083C25.459,10.528 25.533,10.898 25.681,11.158C25.199,11.084 24.866,10.972 24.532,10.787L24.495,10.787L24.421,10.972L24.458,10.972C24.754,11.121 25.014,11.195 25.347,11.306C25.347,11.306 25.607,11.343 25.792,11.38C25.755,11.417 25.718,11.491 25.718,11.566C25.718,11.714 25.829,11.825 25.978,11.825C26.126,11.825 26.237,11.714 26.237,11.566C26.237,11.491 26.2,11.417 26.163,11.38C26.348,11.343 26.571,11.306 26.571,11.306C26.904,11.232 27.201,11.158 27.497,10.972L27.534,10.972L27.46,10.75L27.423,10.75C27.09,10.935 26.756,11.047 26.274,11.121C26.385,10.861 26.497,10.491 26.497,10.046C26.497,9.712 26.459,9.378 26.348,9.156L26.978,9.156C27.312,9.156 27.46,8.971 27.46,8.748C27.46,8.6 27.349,8.452 27.164,8.452C27.016,8.452 26.867,8.563 26.867,8.748C26.867,8.785 26.867,8.822 26.904,8.859C26.941,8.897 26.941,8.971 26.83,8.971L26.459,8.971L26.459,4.263C26.459,3.633 26.422,2.854 26.052,2.113L25.941,1.891L25.829,2.113C25.459,2.854 25.422,3.633 25.422,4.263L25.422,8.971L25.051,8.971C24.94,8.971 24.977,8.897 24.977,8.859C24.977,8.822 25.014,8.785 25.014,8.748C25.014,8.6 24.903,8.452 24.754,8.452C24.643,8.489 24.495,8.637 24.495,8.785ZM23.716,9.341C23.642,9.193 23.531,9.082 23.383,8.971C23.346,9.082 23.309,9.193 23.309,9.304C23.309,9.416 23.346,9.564 23.383,9.675C23.42,9.86 23.531,9.972 23.642,10.12C23.679,10.12 23.753,10.157 23.791,10.157L23.791,10.12C23.716,9.897 23.679,9.638 23.716,9.341ZM23.494,4.634C23.272,4.597 23.012,4.634 22.79,4.745C22.641,4.819 22.493,4.93 22.419,5.078C22.419,5.153 22.419,5.19 22.382,5.264L22.419,5.264C22.641,5.116 22.901,5.041 23.197,5.041C23.309,4.93 23.42,4.782 23.494,4.634ZM23.234,8.748C23.197,8.6 23.086,8.452 22.975,8.303C22.864,8.489 22.79,8.674 22.79,8.897L22.79,9.008C22.79,9.193 22.864,9.341 22.975,9.49C23.012,9.527 23.086,9.564 23.123,9.601L23.123,9.564C23.086,9.267 23.123,9.045 23.234,8.748ZM22.382,8.341C22.382,8.452 22.419,8.563 22.456,8.711C22.493,8.748 22.53,8.785 22.567,8.822C22.567,8.822 22.567,8.785 22.604,8.785C22.641,8.526 22.716,8.266 22.864,8.044C22.864,7.859 22.79,7.71 22.716,7.562C22.53,7.747 22.419,7.97 22.382,8.192L22.382,8.341ZM22.678,7.303C22.716,7.228 22.716,7.154 22.716,7.08C22.716,7.006 22.678,6.895 22.678,6.821C22.456,6.969 22.308,7.117 22.197,7.34C22.122,7.488 22.122,7.636 22.122,7.784L22.122,7.859C22.159,7.896 22.197,7.97 22.197,8.007C22.197,8.007 22.234,8.007 22.234,7.97C22.308,7.71 22.456,7.488 22.678,7.303ZM22.122,5.968L22.122,6.116L22.159,6.116C22.345,5.931 22.567,5.82 22.827,5.746C22.938,5.597 23.012,5.449 23.049,5.301C22.79,5.338 22.567,5.412 22.382,5.56C22.271,5.634 22.159,5.82 22.122,5.968ZM22.011,6.895C22.048,6.932 22.048,7.006 22.048,7.08L22.085,7.08C22.234,6.858 22.419,6.672 22.678,6.561C22.753,6.413 22.79,6.228 22.79,6.042C22.53,6.116 22.345,6.265 22.197,6.45C22.085,6.561 22.011,6.709 22.011,6.895ZM21.863,7.822C21.715,7.636 21.492,7.525 21.233,7.451C21.27,7.71 21.344,7.933 21.492,8.118C21.566,8.192 21.678,8.266 21.752,8.341C21.863,8.378 21.974,8.415 22.085,8.452C22.085,8.229 22.011,8.007 21.863,7.822ZM21.492,8.526C21.566,8.785 21.715,9.008 21.9,9.156C21.974,9.23 22.085,9.267 22.197,9.304C22.345,9.304 22.456,9.304 22.567,9.341C22.456,9.119 22.345,8.897 22.159,8.785C22.011,8.6 21.752,8.526 21.492,8.526ZM22.011,9.564C22.159,9.786 22.308,9.934 22.567,10.046C22.678,10.083 22.79,10.12 22.901,10.12C23.012,10.083 23.16,10.083 23.272,10.046C23.123,9.86 22.938,9.675 22.753,9.601C22.53,9.49 22.271,9.49 22.011,9.564ZM22.753,10.416C22.938,10.602 23.16,10.713 23.42,10.75C23.642,10.787 23.902,10.713 24.124,10.639C23.939,10.453 23.716,10.342 23.457,10.305C23.234,10.231 22.975,10.305 22.753,10.416ZM24.68,10.639L24.68,10.565C24.68,10.342 24.606,10.12 24.495,9.934C24.347,9.749 24.161,9.601 23.939,9.49L23.939,9.564C23.939,9.786 24.013,10.009 24.124,10.194C24.235,10.416 24.421,10.565 24.68,10.639ZM23.716,3.522C23.679,3.596 23.605,3.707 23.531,3.781C23.753,3.781 23.976,3.707 24.161,3.559C24.347,3.41 24.495,3.188 24.606,2.966C24.347,2.966 24.087,3.04 23.902,3.188C23.865,3.225 23.865,3.225 23.828,3.262C23.791,3.336 23.753,3.447 23.716,3.522ZM22.975,3.522C23.012,3.67 23.012,3.781 23.012,3.929C23.234,3.818 23.42,3.633 23.494,3.447C23.605,3.262 23.642,3.077 23.642,2.891C23.642,2.817 23.642,2.78 23.605,2.706C23.383,2.817 23.197,3.003 23.086,3.225C23.049,3.336 23.012,3.41 22.975,3.522ZM22.864,4.485C22.864,4.485 22.901,4.485 22.864,4.485C23.16,4.411 23.42,4.411 23.679,4.448C23.828,4.374 23.976,4.263 24.087,4.115C23.865,4.041 23.605,4.003 23.383,4.078C23.197,4.115 23.049,4.189 22.938,4.337C22.901,4.374 22.901,4.411 22.864,4.485ZM22.271,4.263L22.271,4.337C22.345,4.448 22.382,4.597 22.382,4.708C22.567,4.522 22.678,4.337 22.753,4.115C22.79,4.041 22.79,3.929 22.79,3.855C22.79,3.707 22.753,3.522 22.678,3.373C22.493,3.559 22.345,3.744 22.271,4.003C22.308,4.078 22.271,4.152 22.271,4.263ZM21.752,4.93C21.752,5.041 21.789,5.153 21.826,5.264C21.9,5.375 21.974,5.486 22.011,5.597C22.122,5.412 22.234,5.19 22.234,4.93C22.234,4.708 22.122,4.448 22.011,4.226C21.863,4.448 21.752,4.671 21.752,4.93ZM21.381,5.709C21.381,5.82 21.381,5.894 21.418,5.968C21.455,6.079 21.492,6.191 21.566,6.302C21.678,6.376 21.752,6.45 21.826,6.561C21.863,6.413 21.9,6.265 21.9,6.153C21.9,6.042 21.9,5.968 21.863,5.857C21.789,5.634 21.641,5.412 21.455,5.227C21.418,5.375 21.381,5.56 21.381,5.709ZM21.196,6.487C21.196,6.672 21.233,6.895 21.344,7.043C21.381,7.154 21.455,7.228 21.566,7.303C21.678,7.34 21.789,7.414 21.9,7.488L21.9,7.34C21.9,7.154 21.863,6.969 21.752,6.784C21.641,6.561 21.455,6.376 21.196,6.265L21.196,6.487ZM12.188,9.416C12.447,9.23 12.781,9.156 13.189,9.156C13.634,9.156 14.078,9.23 14.56,9.378C15.042,9.49 15.598,9.638 16.117,9.601L16.117,3.04C15.561,3.077 15.005,2.928 14.486,2.817C14.041,2.706 13.597,2.595 13.226,2.632C12.67,2.632 12.373,2.817 12.188,2.966L12.188,9.416ZM7.999,9.564C8.518,9.601 9.037,9.49 9.556,9.341C10.038,9.23 10.483,9.119 10.928,9.119C11.335,9.119 11.669,9.23 11.928,9.378L11.928,2.966C11.743,2.78 11.447,2.632 10.891,2.632C10.483,2.632 10.075,2.706 9.63,2.817C9.111,2.966 8.592,3.077 7.999,3.04L7.999,9.564ZM6.998,10.602L11.484,10.602C11.595,10.787 11.78,10.935 12.04,10.935C12.299,10.935 12.522,10.787 12.596,10.602L17.081,10.602L17.081,3.188L16.525,3.188L16.562,3.336L16.562,10.083L12.41,10.083C12.336,10.194 12.262,10.231 12.04,10.231C11.854,10.231 11.78,10.194 11.706,10.083L7.517,10.083L7.517,3.336L7.554,3.188L6.998,3.188L6.998,10.602ZM8.629,25.466L19.194,15.977L29.796,25.503C30.5,24.169 30.982,22.872 31.39,21.648L19.194,10.676L7.035,21.611C7.406,22.834 7.925,24.132 8.629,25.466ZM10.891,7.525C11.15,7.525 11.372,7.562 11.521,7.636L11.521,7.303C11.335,7.228 11.113,7.228 10.891,7.191C10.446,7.191 10.001,7.303 9.519,7.414C9.148,7.525 8.778,7.599 8.37,7.636L8.37,7.933C8.778,7.896 9.185,7.784 9.593,7.71C10.075,7.636 10.483,7.525 10.891,7.525ZM10.891,8.303C11.15,8.303 11.372,8.341 11.521,8.415L11.521,8.081C11.335,8.007 11.113,7.97 10.891,7.97C10.446,7.97 10.001,8.081 9.519,8.192C9.148,8.303 8.778,8.378 8.37,8.415L8.37,8.711C8.778,8.674 9.185,8.563 9.593,8.489C10.075,8.378 10.483,8.266 10.891,8.303ZM10.891,3.744C11.15,3.744 11.372,3.818 11.521,3.855L11.521,3.522C11.335,3.447 11.113,3.447 10.891,3.41C10.446,3.41 10.001,3.522 9.519,3.633C9.148,3.744 8.778,3.818 8.37,3.855L8.37,4.152C8.778,4.115 9.185,4.041 9.593,3.929C10.075,3.818 10.483,3.744 10.891,3.744ZM14.486,5.486C14.857,5.597 15.265,5.672 15.709,5.709L15.709,5.412C15.339,5.375 14.931,5.301 14.56,5.19C14.078,5.078 13.634,4.967 13.189,4.967C12.966,4.967 12.744,5.004 12.559,5.078L12.559,5.412C12.707,5.338 12.929,5.301 13.189,5.301C13.597,5.227 14.041,5.338 14.486,5.486ZM14.486,3.966C14.857,4.078 15.265,4.152 15.709,4.189L15.709,3.892C15.339,3.855 14.931,3.781 14.56,3.67C14.078,3.559 13.634,3.447 13.189,3.447C12.966,3.447 12.744,3.484 12.559,3.559L12.559,3.892C12.707,3.818 12.929,3.781 13.189,3.781C13.597,3.744 14.041,3.818 14.486,3.966ZM14.486,6.969C14.857,7.043 15.302,7.154 15.709,7.191L15.709,6.895C15.302,6.858 14.931,6.784 14.56,6.672C14.078,6.561 13.634,6.45 13.226,6.45C13.003,6.45 12.781,6.487 12.596,6.524L12.596,6.858C12.744,6.784 12.966,6.747 13.226,6.747C13.597,6.747 14.041,6.858 14.486,6.969ZM14.486,4.708C14.857,4.819 15.265,4.893 15.709,4.93L15.709,4.634C15.339,4.597 14.931,4.522 14.56,4.411C14.078,4.3 13.634,4.189 13.189,4.189C12.966,4.189 12.744,4.226 12.559,4.3L12.559,4.634C12.707,4.559 12.929,4.522 13.189,4.522C13.597,4.485 14.041,4.597 14.486,4.708ZM14.486,7.747C14.857,7.859 15.265,7.933 15.709,7.97L15.709,7.673C15.339,7.636 14.931,7.525 14.56,7.451C14.078,7.34 13.634,7.228 13.189,7.228C12.966,7.228 12.744,7.266 12.559,7.34L12.559,7.673C12.707,7.599 12.929,7.562 13.189,7.562C13.597,7.525 14.041,7.636 14.486,7.747ZM14.486,8.489C14.857,8.6 15.265,8.674 15.709,8.711L15.709,8.415C15.339,8.378 14.931,8.303 14.56,8.192C14.078,8.081 13.634,7.97 13.189,7.97C12.966,7.97 12.744,8.007 12.559,8.081L12.559,8.415C12.707,8.341 12.929,8.303 13.189,8.303C13.597,8.266 14.041,8.378 14.486,8.489ZM38.136,24.243L38.062,24.428C37.358,26.764 36.172,29.099 35.319,30.619L35.134,30.916L33.91,29.803C33.873,29.878 33.799,29.989 33.762,30.063C30.648,35.03 26.274,38.626 21.047,40.553L19.194,41.221L17.341,40.553C12.151,38.663 7.74,35.03 4.663,30.063C4.626,29.989 4.589,29.878 4.515,29.803L3.254,30.916L3.069,30.582C2.216,29.025 1.067,26.69 0.326,24.391L0.289,24.243L3.291,21.537L3.662,21.203L3.81,21.648C3.959,22.204 4.144,22.723 4.329,23.242L5.182,22.464L5.516,22.167L5.664,22.612C6.294,24.503 7.147,26.282 8.147,27.876C10.779,32.065 14.449,35.104 18.786,36.698C18.786,36.698 19.083,36.809 19.231,36.847C19.379,36.809 19.676,36.698 19.676,36.698C24.013,35.104 27.72,32.065 30.315,27.876C31.316,26.282 32.168,24.503 32.798,22.612L32.947,22.167L34.133,23.242C34.318,22.723 34.503,22.204 34.652,21.648L34.8,21.203L38.136,24.243ZM2.772,28.691L2.216,25.17L3.847,23.687C3.662,23.242 3.514,22.76 3.366,22.278C2.884,22.723 1.216,24.206 0.993,24.428C1.475,25.911 2.105,27.394 2.772,28.691ZM4.218,29.284C3.847,28.654 3.477,27.987 3.18,27.32L3.588,29.878C3.699,29.729 3.959,29.507 4.218,29.284ZM35.245,27.32C34.948,27.987 34.578,28.654 34.207,29.284C34.466,29.507 34.689,29.729 34.837,29.878L35.245,27.32ZM35.467,25.281C35.208,25.059 33.614,23.613 33.169,23.205C32.539,24.984 31.76,26.69 30.797,28.209C28.128,32.509 24.347,35.623 19.861,37.291L19.194,37.514L18.564,37.291C14.078,35.66 10.334,32.509 7.628,28.209C6.665,26.69 5.886,24.984 5.256,23.205C4.774,23.613 3.217,25.059 2.958,25.281C3.551,26.838 4.329,28.358 5.182,29.729C8.222,34.585 12.522,38.107 17.6,39.96C17.6,39.96 19.083,40.479 19.231,40.553C19.416,40.479 20.899,39.96 20.899,39.96C25.978,38.107 30.278,34.548 33.317,29.729C34.096,28.395 34.874,26.875 35.467,25.281ZM37.432,24.391C37.209,24.169 35.541,22.686 35.059,22.241C34.911,22.723 34.763,23.205 34.578,23.65L36.209,25.133L35.653,28.691C36.283,27.394 36.95,25.911 37.432,24.391ZM5.478,28.914L5.516,29.062L5.404,29.136C5.33,29.025 5.293,28.914 5.219,28.766C5.145,28.654 5.071,28.543 4.997,28.395L5.108,28.358L5.219,28.469C5.33,28.358 5.516,28.209 5.59,28.061L5.33,27.579L4.811,27.691L4.848,27.839L4.774,27.876C4.737,27.765 4.663,27.691 4.626,27.579C4.589,27.505 4.552,27.431 4.478,27.32L4.589,27.283L4.7,27.394C5.071,27.394 5.849,27.246 6.331,27.172C6.405,27.283 6.516,27.357 6.591,27.431L6.628,27.579L6.146,28.172C5.886,28.432 5.59,28.803 5.478,28.914ZM5.775,27.913L6.22,27.431L5.553,27.579L5.775,27.913ZM8.481,30.656L8.555,30.582C8.481,30.508 8.444,30.434 8.37,30.322C8.296,30.248 8.259,30.137 8.184,30.063L8.073,30.137L8.147,30.285C7.888,30.471 7.295,30.953 7.295,30.953C7.443,30.508 7.628,29.989 7.814,29.544C7.74,29.47 7.703,29.396 7.628,29.322C7.591,29.247 7.517,29.173 7.48,29.099L7.406,29.173L7.48,29.322C7.369,29.433 7.258,29.507 7.109,29.618L6.702,29.915C6.553,30.026 6.442,30.1 6.294,30.174L6.183,30.063L6.109,30.137C6.183,30.211 6.22,30.285 6.294,30.397C6.368,30.471 6.405,30.582 6.479,30.656L6.553,30.582L6.442,30.397C6.702,30.211 7.035,29.952 7.332,29.729C7.147,30.174 6.998,30.656 6.813,31.175C6.85,31.212 6.887,31.286 6.924,31.323C6.961,31.36 6.998,31.434 7.035,31.472C7.184,31.36 7.332,31.212 7.554,31.064L7.962,30.767C8.11,30.656 8.259,30.582 8.37,30.508L8.481,30.656ZM8.629,32.028C8.222,32.398 8.259,32.954 8.592,33.288C8.815,33.51 9.037,33.659 9.445,33.696L9.482,33.473C9.259,33.436 9.074,33.362 8.963,33.214C8.703,32.954 8.703,32.584 9,32.287C9.297,31.991 9.63,32.102 9.816,32.324C9.927,32.435 10.001,32.584 10.001,32.732L9.927,32.88L10.001,32.991C10.112,32.917 10.26,32.806 10.372,32.769C10.297,32.547 10.186,32.398 10.038,32.213C9.63,31.731 9.037,31.657 8.629,32.028ZM12.225,35.438C11.891,35.846 11.372,35.883 10.853,35.475C10.372,35.067 10.297,34.585 10.668,34.103C11.002,33.696 11.558,33.659 12.04,34.066C12.522,34.474 12.596,34.993 12.225,35.438ZM11.854,34.289C11.595,34.066 11.261,34.178 11.002,34.437C10.742,34.734 10.742,35.067 11.002,35.29C11.261,35.512 11.595,35.401 11.854,35.141C12.077,34.845 12.114,34.474 11.854,34.289ZM14.82,36.661C14.709,36.884 14.449,36.921 14.19,36.809C14.227,36.995 14.301,37.625 14.338,37.736L14.375,37.81L14.301,37.922C14.153,37.81 13.967,37.736 13.819,37.662C13.819,37.366 13.782,36.921 13.745,36.661L13.634,36.587L13.559,36.735C13.448,36.884 13.374,37.032 13.337,37.143L13.448,37.254L13.374,37.366C13.263,37.291 13.152,37.217 13.041,37.143C12.929,37.069 12.818,36.995 12.67,36.921L12.744,36.809L12.892,36.884C13.003,36.772 13.078,36.624 13.189,36.476L13.448,36.031C13.559,35.883 13.634,35.734 13.708,35.623L13.597,35.512L13.671,35.401C13.745,35.475 13.856,35.512 13.93,35.586C14.041,35.66 14.153,35.697 14.264,35.772C14.375,35.846 14.486,35.883 14.597,35.957C14.968,36.179 14.968,36.439 14.82,36.661ZM14.264,36.031C14.153,35.957 14.116,35.957 14.041,35.92C14.004,35.994 13.93,36.105 13.856,36.216L13.782,36.328C13.819,36.365 13.856,36.402 13.893,36.439C14.116,36.587 14.301,36.587 14.412,36.402C14.486,36.253 14.449,36.142 14.264,36.031ZM17.081,38.033C17.044,38.366 17.007,38.848 17.007,39.034L17.118,39.108L17.081,39.219C16.97,39.145 16.822,39.108 16.71,39.034C16.599,38.959 16.451,38.922 16.34,38.885L16.377,38.774L16.525,38.811C16.562,38.663 16.599,38.441 16.599,38.292L16.08,38.07L15.747,38.478L15.858,38.552L15.821,38.663C15.709,38.626 15.598,38.552 15.524,38.515C15.45,38.478 15.339,38.441 15.265,38.403L15.302,38.292L15.45,38.329C15.747,38.107 16.266,37.551 16.636,37.143C16.784,37.18 16.896,37.18 17.007,37.217L17.155,37.328L17.081,38.033ZM16.71,37.366L16.266,37.884L16.636,38.07L16.71,37.366ZM22.159,38.663C22.085,38.515 22.011,38.403 21.937,38.218L21.752,37.773C21.678,37.588 21.603,37.477 21.566,37.328L21.715,37.254L21.678,37.143C21.566,37.217 21.418,37.254 21.307,37.328C21.196,37.366 21.047,37.44 20.936,37.477L20.973,37.588L21.122,37.551C21.196,37.699 21.27,37.81 21.344,37.996L21.529,38.441C21.603,38.626 21.641,38.737 21.715,38.885L21.566,38.959L21.603,39.071C21.715,38.997 21.863,38.959 21.974,38.885C22.085,38.848 22.234,38.774 22.345,38.737L22.308,38.626L22.159,38.663ZM25.347,36.958C25.273,36.847 25.162,36.698 25.088,36.55L24.828,36.105C24.717,35.957 24.643,35.809 24.606,35.697L24.717,35.586L24.643,35.475C24.532,35.549 24.421,35.623 24.347,35.66C24.235,35.734 24.124,35.772 24.013,35.846C24.087,36.068 24.235,36.958 24.272,37.143C24.087,36.995 23.42,36.476 23.272,36.291C23.16,36.365 23.049,36.439 22.975,36.476C22.864,36.55 22.753,36.587 22.641,36.661L22.716,36.772L22.864,36.735L22.975,36.958C23.086,37.18 23.494,37.847 23.568,38.033L23.457,38.144L23.531,38.255C23.605,38.218 23.716,38.144 23.791,38.107C23.865,38.07 23.976,37.996 24.05,37.959L23.976,37.847L23.828,37.922C23.753,37.81 23.642,37.662 23.568,37.514L23.42,37.254C23.309,37.032 23.197,36.884 23.16,36.809C23.791,37.366 24.161,37.625 24.309,37.773L24.532,37.625L24.235,36.142C24.272,36.216 24.384,36.365 24.495,36.587L24.643,36.847C24.754,36.995 24.791,37.143 24.866,37.291L24.754,37.403L24.791,37.514C24.903,37.44 25.014,37.366 25.125,37.291C25.236,37.217 25.384,37.143 25.496,37.069L25.459,36.958L25.347,36.958ZM27.053,35.66C26.941,35.549 26.83,35.438 26.719,35.29L26.497,34.993C26.385,34.882 26.274,34.734 26.2,34.585C26.237,34.548 26.274,34.474 26.348,34.437C26.534,34.289 26.682,34.326 26.793,34.437C26.904,34.585 26.941,34.771 26.756,34.882C26.719,34.919 26.682,34.956 26.645,34.956L26.719,35.178C26.793,35.141 26.867,35.067 26.941,35.03C27.312,34.734 27.312,34.363 27.127,34.103C26.941,33.881 26.645,33.844 26.348,34.103C26.274,34.178 26.2,34.252 26.089,34.326C25.978,34.437 25.866,34.511 25.792,34.585C25.718,34.659 25.607,34.734 25.496,34.808L25.57,34.882L25.718,34.808C25.829,34.919 25.941,35.03 26.052,35.178L26.348,35.586C26.459,35.734 26.571,35.846 26.645,35.957L26.534,36.068L26.608,36.142C26.719,36.068 26.83,35.957 26.941,35.883C27.053,35.809 27.164,35.734 27.312,35.586L27.238,35.512L27.053,35.66ZM29.981,32.991L30.055,33.066C29.944,33.14 29.87,33.251 29.759,33.362C29.647,33.473 29.573,33.584 29.462,33.659L29.388,33.584L29.462,33.473C29.351,33.399 29.128,33.288 28.98,33.214L28.572,33.622L28.832,34.066L28.943,33.992L29.017,34.066C28.943,34.141 28.869,34.215 28.795,34.289C28.721,34.363 28.647,34.437 28.609,34.511L28.535,34.437L28.609,34.326C28.498,33.992 28.128,33.288 27.905,32.806C27.979,32.695 28.053,32.584 28.091,32.472L28.239,32.398L28.906,32.695C29.203,32.843 29.647,33.028 29.796,33.066L29.981,32.991ZM28.832,33.103L28.202,32.806L28.535,33.399L28.832,33.103ZM31.872,30.582L31.946,30.656C31.834,30.804 31.723,30.953 31.649,31.101C31.316,31.101 30.871,31.064 30.611,31.064L30.537,31.175L30.648,31.286C30.797,31.397 30.908,31.472 31.056,31.546L31.167,31.434L31.278,31.509C31.204,31.62 31.093,31.731 31.019,31.842C30.945,31.953 30.871,32.065 30.759,32.176L30.648,32.102L30.722,31.953C30.611,31.842 30.5,31.768 30.352,31.657L29.944,31.36C29.796,31.249 29.684,31.175 29.536,31.064L29.425,31.175L29.314,31.101C29.388,31.027 29.462,30.953 29.499,30.841C29.573,30.73 29.647,30.656 29.722,30.545C29.796,30.434 29.87,30.359 29.944,30.248C30.241,29.841 30.5,29.878 30.685,30.026C30.871,30.174 30.908,30.434 30.797,30.656C30.982,30.656 31.612,30.619 31.723,30.619L31.872,30.582ZM30.5,30.434C30.389,30.322 30.241,30.359 30.129,30.545C30.055,30.619 30.018,30.693 29.981,30.73C30.055,30.767 30.129,30.878 30.278,30.953L30.389,31.027C30.426,30.99 30.463,30.953 30.5,30.916C30.648,30.73 30.648,30.582 30.5,30.434ZM33.132,28.877C32.798,29.433 32.316,29.581 31.834,29.284C31.39,29.025 31.241,28.506 31.575,27.95C31.909,27.394 32.353,27.246 32.872,27.542C33.317,27.765 33.466,28.321 33.132,28.877ZM32.613,27.95C32.279,27.765 31.946,27.802 31.76,28.061C31.575,28.358 31.723,28.654 32.057,28.877C32.391,29.062 32.724,29.025 32.909,28.766C33.095,28.469 32.947,28.135 32.613,27.95ZM19.194,38.441C19.009,38.441 18.823,38.626 18.823,38.848C18.823,39.071 19.009,39.256 19.194,39.256C19.416,39.256 19.602,39.071 19.602,38.848C19.602,38.626 19.416,38.441 19.194,38.441ZM4.737,26.097C4.959,26.097 5.145,25.911 5.145,25.726C5.145,25.503 4.959,25.318 4.737,25.318C4.515,25.318 4.366,25.503 4.366,25.726C4.366,25.911 4.552,26.097 4.737,26.097ZM33.725,26.097C33.947,26.097 34.133,25.911 34.133,25.726C34.133,25.503 33.947,25.318 33.725,25.318C33.54,25.318 33.354,25.503 33.354,25.726C33.317,25.911 33.503,26.097 33.725,26.097Z" style="fill:white;fill-rule:nonzero;"/>
    </g>
</svg>
